<?xml version="1.0" encoding="utf-8" standalone="no"?>
<!DOCTYPE svg PUBLIC "-//W3C//DTD SVG 1.1//EN"
  "http://www.w3.org/Graphics/SVG/1.1/DTD/svg11.dtd">
<svg xmlns:xlink="http://www.w3.org/1999/xlink" width="460.8pt" height="345.6pt" viewBox="0 0 460.8 345.6" xmlns="http://www.w3.org/2000/svg" version="1.1">
 <metadata>
  <rdf:RDF xmlns:dc="http://purl.org/dc/elements/1.1/" xmlns:cc="http://creativecommons.org/ns#" xmlns:rdf="http://www.w3.org/1999/02/22-rdf-syntax-ns#">
   <cc:Work>
    <dc:type rdf:resource="http://purl.org/dc/dcmitype/StillImage"/>
    <dc:date>2025-04-03T14:57:49.425039</dc:date>
    <dc:format>image/svg+xml</dc:format>
    <dc:creator>
     <cc:Agent>
      <dc:title>Matplotlib v3.10.1, https://matplotlib.org/</dc:title>
     </cc:Agent>
    </dc:creator>
   </cc:Work>
  </rdf:RDF>
 </metadata>
 <defs>
  <style type="text/css">*{stroke-linejoin: round; stroke-linecap: butt}</style>
 </defs>
 <g id="figure_1">
  <g id="patch_1">
   <path d="M 0 345.6 
L 460.8 345.6 
L 460.8 0 
L 0 0 
z
" style="fill: #ffffff"/>
  </g>
  <g id="axes_1">
   <g id="patch_2">
    <path d="M 57.6 345.6 
L 403.2 345.6 
L 403.2 0 
L 57.6 0 
z
" style="fill: #ffffff"/>
   </g>
   <g id="matplotlib.axis_1"/>
   <g id="matplotlib.axis_2"/>
   <g id="line2d_1">
    <path d="M 178.611984 -1 
L 235.623198 346.6 
" clip-path="url(#p7b8cbcd202)" style="fill: none; stroke: #ffa500; stroke-width: 5; stroke-linecap: square"/>
   </g>
   <g id="line2d_2">
    <path d="M 14.4 108.80765 
L 446.4 269.098152 
" clip-path="url(#p7b8cbcd202)" style="fill: none; stroke: #ffa500; stroke-width: 5; stroke-linecap: square"/>
   </g>
   <g id="line2d_3">
    <path d="M 14.4 56.164221 
L 319.392277 346.6 
" clip-path="url(#p7b8cbcd202)" style="fill: none; stroke: #ffa500; stroke-width: 5; stroke-linecap: square"/>
   </g>
   <g id="line2d_4">
    <path d="M 60.351971 -1 
L 446.4 304.432306 
" clip-path="url(#p7b8cbcd202)" style="fill: none; stroke: #ffa500; stroke-width: 5; stroke-linecap: square"/>
   </g>
   <g id="QuadContourSet_1">
    <path d="M 276.716633 269.344178 
L 269.790782 268.739441 
L 262.86493 267.920073 
L 256.80481 267.002602 
L 250.722082 265.866132 
L 244.684569 264.464629 
L 240.355912 263.26665 
L 235.191101 261.537475 
L 231.698597 260.113688 
L 229.101403 258.881285 
L 226.173621 257.208818 
L 223.774004 255.477355 
L 221.952956 253.745892 
L 220.66691 252.014429 
L 220.215592 251.148697 
L 219.888949 250.282966 
L 219.684415 249.417234 
L 219.601991 248.551503 
L 219.641677 247.685772 
L 219.803472 246.82004 
L 220.444088 245.193703 
L 220.493965 245.088577 
L 221.690481 243.357114 
L 223.41559 241.625651 
L 225.708771 239.894188 
L 228.631599 238.162725 
L 232.268524 236.431263 
L 236.027255 234.962294 
L 239.49018 233.799404 
L 244.684569 232.334443 
L 249.301465 231.236874 
L 255.073347 230.098156 
L 261.133467 229.122084 
L 268.059319 228.244552 
L 274.98517 227.589521 
L 282.776754 227.096633 
L 290.568337 226.841806 
L 298.35992 226.820458 
L 306.151503 227.029956 
L 313.943086 227.478392 
L 320.868938 228.087453 
L 327.79479 228.914896 
L 334.720641 229.991443 
L 340.780762 231.169057 
L 345.109419 232.177866 
L 350.303808 233.616657 
L 353.766733 234.742784 
L 358.13257 236.431263 
L 361.768763 238.162725 
L 364.690358 239.894188 
L 366.984667 241.625651 
L 368.709792 243.357114 
L 369.905154 245.088577 
L 370.313333 245.954309 
L 370.59626 246.82004 
L 370.757498 247.685772 
L 370.797047 248.551503 
L 370.714907 249.417234 
L 370.215631 251.068719 
L 370.18521 251.148697 
L 369.155049 252.88016 
L 367.60644 254.611623 
L 365.501425 256.343086 
L 362.79153 258.074549 
L 359.398778 259.806012 
L 355.498196 261.425737 
L 352.760037 262.403206 
L 347.706613 263.936114 
L 343.377956 265.044664 
L 337.317836 266.332222 
L 331.257715 267.38115 
L 325.197595 268.223019 
L 318.271743 268.965113 
L 311.345892 269.49884 
L 303.554309 269.863584 
L 295.762725 269.996336 
L 287.971142 269.897094 
L 280.179559 269.56586 
L 276.716633 269.344178 
L 276.716633 269.344178 
" clip-path="url(#p7b8cbcd202)" style="fill: none; stroke: #0000ff; stroke-opacity: 0.8; stroke-width: 5"/>
   </g>
   <g id="QuadContourSet_2">
    <path d="M 135.602405 150.804834 
L 134.778097 150.723848 
L 134.736673 150.719666 
L 133.870942 150.623704 
L 133.00521 150.519173 
L 132.139479 150.406075 
L 131.273747 150.284408 
L 130.408016 150.154174 
L 129.542285 150.015371 
L 128.676553 149.868 
L 128.621679 149.858116 
L 127.810822 149.707933 
L 126.94509 149.538776 
L 126.079359 149.360808 
L 125.213627 149.174031 
L 124.409608 148.992385 
L 124.347896 148.978037 
L 123.482164 148.767693 
L 122.616433 148.548282 
L 121.750701 148.319804 
L 121.046762 148.126653 
L 120.88497 148.08093 
L 120.019238 147.82693 
L 119.153507 147.563592 
L 118.287776 147.290916 
L 118.1957 147.260922 
L 117.422044 147.001117 
L 116.556313 146.700765 
L 115.702882 146.39519 
L 115.690581 146.390646 
L 114.82485 146.060854 
L 113.959118 145.721128 
L 113.484558 145.529459 
L 113.093387 145.366268 
L 112.227655 144.994837 
L 111.47665 144.663727 
L 111.361924 144.611424 
L 110.496192 144.206129 
L 109.646638 143.797996 
L 109.630461 143.78995 
L 108.764729 143.348404 
L 107.968615 142.932265 
L 107.898998 142.894546 
L 107.033267 142.4141 
L 106.421471 142.066533 
L 106.167535 141.9168 
L 105.301804 141.394506 
L 104.987832 141.200802 
L 104.436072 140.846979 
L 103.655066 140.33507 
L 103.570341 140.277259 
L 102.704609 139.673751 
L 102.417464 139.469339 
L 101.838878 139.039836 
L 101.263175 138.603607 
L 100.973146 138.374021 
L 100.185533 137.737876 
L 100.107415 137.671829 
L 99.241683 136.925295 
L 99.181227 136.872144 
L 98.375952 136.129434 
L 98.245075 136.006413 
L 97.51022 135.280016 
L 97.371864 135.140681 
L 96.644489 134.368298 
L 96.558173 134.27495 
L 95.801224 133.409218 
L 95.778758 133.381954 
L 95.100135 132.543487 
L 94.913026 132.29727 
L 94.450466 131.677756 
L 94.047295 131.100218 
L 93.849567 130.812024 
L 93.296915 129.946293 
L 93.181563 129.750991 
L 92.792272 129.080561 
L 92.3302 128.21483 
L 92.315832 128.185316 
L 91.915511 127.349098 
L 91.541008 126.483367 
L 91.4501 126.248126 
L 91.210433 125.617635 
L 90.920637 124.751904 
L 90.670136 123.886172 
L 90.584369 123.534613 
L 90.460946 123.020441 
L 90.291798 122.154709 
L 90.161312 121.288978 
L 90.069488 120.423246 
L 90.016327 119.557515 
L 90.001829 118.691784 
L 90.025993 117.826052 
L 90.088819 116.960321 
L 90.190309 116.094589 
L 90.33046 115.228858 
L 90.509274 114.363126 
L 90.584369 114.064191 
L 90.729078 113.497395 
L 90.989402 112.631663 
L 91.289021 111.765932 
L 91.4501 111.354466 
L 91.630888 110.9002 
L 92.015378 110.034469 
L 92.315832 109.421629 
L 92.441909 109.168737 
L 92.914138 108.303006 
L 93.181563 107.851571 
L 93.431205 107.437275 
L 93.994186 106.571543 
L 94.047295 106.495459 
L 94.608124 105.705812 
L 94.913026 105.303985 
L 95.271296 104.84008 
L 95.778758 104.222518 
L 95.986377 103.974349 
L 96.644489 103.232335 
L 96.756242 103.108617 
L 97.51022 102.318731 
L 97.583978 102.242886 
L 98.375952 101.47 
L 98.472914 101.377154 
L 99.241683 100.676707 
L 99.426633 100.511423 
L 100.107415 99.931161 
L 100.449008 99.645691 
L 100.973146 99.227029 
L 101.544225 98.77996 
L 101.838878 98.559055 
L 102.704609 97.923195 
L 102.717077 97.914228 
L 103.570341 97.32545 
L 103.980392 97.048497 
L 104.436072 96.752736 
L 105.301804 96.202992 
L 105.334377 96.182766 
L 106.167535 95.684842 
L 106.797222 95.317034 
L 107.033267 95.184149 
L 107.898998 94.708051 
L 108.377199 94.451303 
L 108.764729 94.250504 
L 109.630461 93.812815 
L 110.091405 93.585571 
L 110.496192 93.392749 
L 111.361924 92.990874 
L 111.961491 92.71984 
L 112.227655 92.603449 
L 113.093387 92.23505 
L 113.959118 91.876828 
L 114.015631 91.854108 
L 114.82485 91.53907 
L 115.690581 91.211885 
L 116.30035 90.988377 
L 116.556313 90.897431 
L 117.422044 90.59938 
L 118.287776 90.310883 
L 118.871988 90.122645 
L 119.153507 90.034635 
L 120.019238 89.773255 
L 120.88497 89.521144 
L 121.750701 89.278302 
L 121.829974 89.256914 
L 122.616433 89.050856 
L 123.482164 88.833029 
L 124.347896 88.624204 
L 125.213627 88.424379 
L 125.364234 88.391182 
L 126.079359 88.23798 
L 126.94509 88.061262 
L 127.810822 87.893291 
L 128.676553 87.73407 
L 129.542285 87.583596 
L 129.897469 87.525451 
L 130.408016 87.444154 
L 131.273747 87.314808 
L 132.139479 87.193972 
L 133.00521 87.081646 
L 133.870942 86.977829 
L 134.736673 86.882521 
L 135.602405 86.795724 
L 136.468136 86.717436 
L 137.184212 86.659719 
L 137.333868 86.647978 
L 138.199599 86.588337 
L 139.065331 86.53698 
L 139.931062 86.493906 
L 140.796794 86.459116 
L 141.662525 86.432609 
L 142.528257 86.414386 
L 143.393988 86.404445 
L 144.259719 86.402789 
L 145.125451 86.409415 
L 145.991182 86.424326 
L 146.856914 86.447519 
L 147.722645 86.478996 
L 148.588377 86.518756 
L 149.454108 86.5668 
L 150.31984 86.623127 
L 150.810143 86.659719 
L 151.185571 86.688503 
L 152.051303 86.763387 
L 152.917034 86.846781 
L 153.782766 86.938685 
L 154.648497 87.039098 
L 155.514228 87.14802 
L 156.37996 87.265453 
L 157.245691 87.391394 
L 158.108881 87.525451 
L 158.111423 87.525857 
L 158.977154 87.672831 
L 159.842886 87.828553 
L 160.708617 87.993024 
L 161.574349 88.166243 
L 162.44008 88.34821 
L 162.635146 88.391182 
L 163.305812 88.543194 
L 164.171543 88.748419 
L 165.037275 88.962645 
L 165.903006 89.185873 
L 166.167843 89.256914 
L 166.768737 89.422895 
L 167.634469 89.671299 
L 168.5002 89.928971 
L 169.128315 90.122645 
L 169.365932 90.198158 
L 170.231663 90.482835 
L 171.097395 90.777064 
L 171.699603 90.988377 
L 171.963126 91.08377 
L 172.828858 91.407013 
L 173.694589 91.740111 
L 173.982358 91.854108 
L 174.560321 92.09054 
L 175.426052 92.454868 
L 176.038579 92.71984 
L 176.291784 92.83307 
L 177.157515 93.230737 
L 177.91009 93.585571 
L 178.023246 93.640787 
L 178.888978 94.074122 
L 179.624054 94.451303 
L 179.754709 94.520771 
L 180.620441 94.992356 
L 181.202557 95.317034 
L 181.486172 95.481164 
L 182.351904 95.993872 
L 182.66374 96.182766 
L 183.217635 96.531379 
L 184.021319 97.048497 
L 184.083367 97.090042 
L 184.949098 97.68236 
L 185.280907 97.914228 
L 185.81483 98.303128 
L 186.456061 98.77996 
L 186.680561 98.954281 
L 187.546293 99.640285 
L 187.552982 99.645691 
L 188.412024 100.372173 
L 188.573504 100.511423 
L 189.277756 101.148169 
L 189.526221 101.377154 
L 190.143487 101.975014 
L 190.414913 102.242886 
L 191.009218 102.8609 
L 191.243086 103.108617 
L 191.87495 103.815874 
L 192.013994 103.974349 
L 192.73048 104.84008 
L 192.740681 104.853195 
L 193.392194 105.705812 
L 193.606413 106.005322 
L 194.004384 106.571543 
L 194.472144 107.285903 
L 194.569576 107.437275 
L 195.085915 108.303006 
L 195.337876 108.761803 
L 195.557618 109.168737 
L 195.984894 110.034469 
L 196.203607 110.523659 
L 196.369187 110.9002 
L 196.71033 111.765932 
L 197.01192 112.631663 
L 197.069339 112.821366 
L 197.270646 113.497395 
L 197.489531 114.363126 
L 197.669502 115.228858 
L 197.810561 116.094589 
L 197.912707 116.960321 
L 197.93507 117.266497 
L 197.975289 117.826052 
L 197.999223 118.691784 
L 197.984863 119.557515 
L 197.93507 120.376214 
L 197.932163 120.423246 
L 197.839746 121.288978 
L 197.708415 122.154709 
L 197.538171 123.020441 
L 197.329015 123.886172 
L 197.080946 124.751904 
L 197.069339 124.78692 
L 196.789435 125.617635 
L 196.458181 126.483367 
L 196.203607 127.077725 
L 196.08543 127.349098 
L 195.668207 128.21483 
L 195.337876 128.840006 
L 195.208609 129.080561 
L 194.702495 129.946293 
L 194.472144 130.310858 
L 194.150004 130.812024 
L 193.606413 131.598879 
L 193.550962 131.677756 
L 192.900013 132.543487 
L 192.740681 132.742449 
L 192.197156 133.409218 
L 191.87495 133.781735 
L 191.440561 134.27495 
L 191.009218 134.738054 
L 190.627234 135.140681 
L 190.143487 135.624253 
L 189.753949 136.006413 
L 189.277756 136.450657 
L 188.817234 136.872144 
L 188.412024 137.225658 
L 187.813345 137.737876 
L 187.546293 137.956148 
L 186.738233 138.603607 
L 186.680561 138.64784 
L 185.81483 139.2985 
L 185.582766 139.469339 
L 184.949098 139.916688 
L 184.3438 140.33507 
L 184.083367 140.507988 
L 183.217635 141.070517 
L 183.012652 141.200802 
L 182.351904 141.604841 
L 181.579636 142.066533 
L 181.486172 142.120368 
L 180.620441 142.607644 
L 180.029899 142.932265 
L 179.754709 143.078205 
L 178.888978 143.526341 
L 178.350995 143.797996 
L 178.023246 143.957859 
L 177.157515 144.36952 
L 176.522423 144.663727 
L 176.291784 144.767054 
L 175.426052 145.144641 
L 174.560321 145.511968 
L 174.517912 145.529459 
L 173.694589 145.858211 
L 172.828858 146.193963 
L 172.294176 146.39519 
L 171.963126 146.515933 
L 171.097395 146.822061 
L 170.231663 147.118562 
L 169.80205 147.260922 
L 169.365932 147.401107 
L 168.5002 147.670048 
L 167.634469 147.92965 
L 166.952984 148.126653 
L 166.768737 148.178365 
L 165.903006 148.412283 
L 165.037275 148.637134 
L 164.171543 148.852918 
L 163.587459 148.992385 
L 163.305812 149.057735 
L 162.44008 149.249799 
L 161.574349 149.433052 
L 160.708617 149.607496 
L 159.842886 149.773129 
L 159.373718 149.858116 
L 158.977154 149.927977 
L 158.111423 150.07192 
L 157.245691 150.207296 
L 156.37996 150.334103 
L 155.514228 150.452342 
L 154.648497 150.562014 
L 153.782766 150.663117 
L 153.214585 150.723848 
L 152.917034 150.754801 
L 152.051303 150.836521 
L 151.185571 150.909903 
L 150.31984 150.974946 
L 149.454108 151.03165 
L 148.588377 151.080015 
L 147.722645 151.120041 
L 146.856914 151.151729 
L 145.991182 151.175077 
L 145.125451 151.190087 
L 144.259719 151.196758 
L 143.393988 151.195091 
L 142.528257 151.185084 
L 141.662525 151.166739 
L 140.796794 151.140054 
L 139.931062 151.105031 
L 139.065331 151.061669 
L 138.199599 151.009969 
L 137.333868 150.949929 
L 136.468136 150.881551 
L 135.602405 150.804834 
z
" clip-path="url(#p7b8cbcd202)" style="fill: none; stroke: #0000ff; stroke-opacity: 0.8; stroke-width: 5"/>
   </g>
   <g id="patch_3">
    <path d="M 57.6 345.6 
L 57.6 0 
" style="fill: none; stroke: #000000; stroke-width: 2; stroke-linejoin: miter; stroke-linecap: square"/>
   </g>
   <g id="patch_4">
    <path d="M 403.2 345.6 
L 403.2 0 
" style="fill: none; stroke: #000000; stroke-width: 2; stroke-linejoin: miter; stroke-linecap: square"/>
   </g>
   <g id="patch_5">
    <path d="M 57.6 345.6 
L 403.2 345.6 
" style="fill: none; stroke: #000000; stroke-width: 2; stroke-linejoin: miter; stroke-linecap: square"/>
   </g>
   <g id="patch_6">
    <path d="M 57.6 0 
L 403.2 0 
" style="fill: none; stroke: #000000; stroke-width: 2; stroke-linejoin: miter; stroke-linecap: square"/>
   </g>
  </g>
 </g>
 <defs>
  <clipPath id="p7b8cbcd202">
   <rect x="57.6" y="0" width="345.6" height="345.6"/>
  </clipPath>
 </defs>
</svg>
