<?xml version="1.0" encoding="utf-8" standalone="no"?>
<!DOCTYPE svg PUBLIC "-//W3C//DTD SVG 1.1//EN"
  "http://www.w3.org/Graphics/SVG/1.1/DTD/svg11.dtd">
<svg xmlns:xlink="http://www.w3.org/1999/xlink" width="460.8pt" height="345.6pt" viewBox="0 0 460.8 345.6" xmlns="http://www.w3.org/2000/svg" version="1.1">
 <metadata>
  <rdf:RDF xmlns:dc="http://purl.org/dc/elements/1.1/" xmlns:cc="http://creativecommons.org/ns#" xmlns:rdf="http://www.w3.org/1999/02/22-rdf-syntax-ns#">
   <cc:Work>
    <dc:type rdf:resource="http://purl.org/dc/dcmitype/StillImage"/>
    <dc:date>2025-04-03T14:58:29.233790</dc:date>
    <dc:format>image/svg+xml</dc:format>
    <dc:creator>
     <cc:Agent>
      <dc:title>Matplotlib v3.10.1, https://matplotlib.org/</dc:title>
     </cc:Agent>
    </dc:creator>
   </cc:Work>
  </rdf:RDF>
 </metadata>
 <defs>
  <style type="text/css">*{stroke-linejoin: round; stroke-linecap: butt}</style>
 </defs>
 <g id="figure_1">
  <g id="patch_1">
   <path d="M 0 345.6 
L 460.8 345.6 
L 460.8 0 
L 0 0 
z
" style="fill: #ffffff"/>
  </g>
  <g id="axes_1">
   <g id="patch_2">
    <path d="M 57.6 345.6 
L 403.2 345.6 
L 403.2 0 
L 57.6 0 
z
" style="fill: #ffffff"/>
   </g>
   <g id="matplotlib.axis_1"/>
   <g id="matplotlib.axis_2"/>
   <g id="line2d_1">
    <path d="M -1 53.642344 
L 461.8 153.686646 
" clip-path="url(#p031bc82657)" style="fill: none; stroke: #ffa500; stroke-width: 5; stroke-linecap: square"/>
   </g>
   <g id="line2d_2">
    <path d="M 174.457624 346.6 
L 434.812333 -1 
" clip-path="url(#p031bc82657)" style="fill: none; stroke: #ffa500; stroke-width: 5; stroke-linecap: square"/>
   </g>
   <g id="QuadContourSet_1">
    <path d="M 272.449814 159.508532 
L 271.540248 159.443 
L 271.460407 159.436973 
L 270.470999 159.352829 
L 269.481592 159.25923 
L 268.492184 159.156176 
L 267.502777 159.043668 
L 266.51337 158.921706 
L 265.523962 158.790289 
L 264.534555 158.649418 
L 263.545147 158.499092 
L 263.263401 158.453593 
L 262.55574 158.333578 
L 261.566333 158.155852 
L 260.576925 157.968197 
L 259.587518 157.770614 
L 258.598111 157.563101 
L 258.148021 157.464186 
L 257.608703 157.339399 
L 256.619296 157.100018 
L 255.629888 156.850183 
L 254.640481 156.589895 
L 254.219792 156.474778 
L 253.651074 156.310475 
L 252.661666 156.013597 
L 251.672259 155.705684 
L 250.988832 155.485371 
L 250.682851 155.380907 
L 249.693444 155.03143 
L 248.704037 154.670264 
L 248.241512 154.495963 
L 247.714629 154.284946 
L 246.725222 153.876264 
L 245.856572 153.506556 
L 245.735814 153.451718 
L 244.746407 152.989155 
L 243.764923 152.517149 
L 243.757 152.513065 
L 242.767592 151.988885 
L 241.920135 151.527741 
L 241.778185 151.444525 
L 240.788778 150.849198 
L 240.285085 150.538334 
L 239.79937 150.213438 
L 238.830223 149.548926 
L 238.809963 149.533764 
L 237.820555 148.775188 
L 237.545816 148.559519 
L 236.831148 147.942011 
L 236.410537 147.570112 
L 235.841741 147.010869 
L 235.413971 146.580704 
L 234.852333 145.944701 
L 234.54705 145.591297 
L 233.862926 144.685054 
L 233.801483 144.601889 
L 233.175984 143.612482 
L 232.873518 143.037 
L 232.660507 142.623075 
L 232.254622 141.633667 
L 231.952017 140.64426 
L 231.884111 140.307195 
L 231.755377 139.654853 
L 231.661292 138.665445 
L 231.668374 137.676038 
L 231.776622 136.68663 
L 231.884111 136.178782 
L 231.988164 135.697223 
L 232.305229 134.707816 
L 232.725572 133.718408 
L 232.873518 133.438857 
L 233.257204 132.729001 
L 233.862926 131.792976 
L 233.898223 131.739593 
L 234.660218 130.750186 
L 234.852333 130.531646 
L 235.545084 129.760779 
L 235.841741 129.467065 
L 236.560413 128.771371 
L 236.831148 128.535319 
L 237.71533 127.781964 
L 237.820555 127.700407 
L 238.809963 126.951425 
L 239.024959 126.792557 
L 239.79937 126.267728 
L 240.50206 125.803149 
L 240.788778 125.628091 
L 241.778185 125.03914 
L 242.166834 124.813742 
L 242.767592 124.490092 
L 243.757 123.971128 
L 244.044658 123.824334 
L 244.746407 123.489991 
L 245.735814 123.031725 
L 246.173241 122.834927 
L 246.725222 122.602044 
L 247.714629 122.196922 
L 248.599746 121.84552 
L 248.704037 121.80654 
L 249.693444 121.448337 
L 250.682851 121.101725 
L 251.408217 120.856112 
L 251.672259 120.771654 
L 252.661666 120.466126 
L 253.651074 120.171549 
L 254.640481 119.887922 
L 254.717468 119.866705 
L 255.629888 119.628433 
L 256.619296 119.380432 
L 257.608703 119.142808 
L 258.598111 118.915561 
L 258.772677 118.877297 
L 259.587518 118.70759 
L 260.576925 118.511384 
L 261.566333 118.325039 
L 262.55574 118.148552 
L 263.545147 117.981926 
L 264.138636 117.88789 
L 264.534555 117.828136 
L 265.523962 117.688201 
L 266.51337 117.557657 
L 267.502777 117.436505 
L 268.492184 117.324745 
L 269.481592 117.222376 
L 270.470999 117.129399 
L 271.460407 117.045814 
L 272.449814 116.97162 
L 273.439221 116.906818 
L 273.588052 116.898483 
L 274.428629 116.85354 
L 275.418036 116.809606 
L 276.407443 116.774639 
L 277.396851 116.748637 
L 278.386258 116.731601 
L 279.375666 116.723532 
L 280.365073 116.724429 
L 281.35448 116.734291 
L 282.343888 116.75312 
L 283.333295 116.780915 
L 284.322703 116.817676 
L 285.31211 116.863403 
L 285.946709 116.898483 
L 286.301517 116.919027 
L 287.290925 116.985707 
L 288.280332 117.06178 
L 289.269739 117.147243 
L 290.259147 117.242099 
L 291.248554 117.346346 
L 292.237962 117.459984 
L 293.227369 117.583015 
L 294.216776 117.715436 
L 295.206184 117.85725 
L 295.406677 117.88789 
L 296.195591 118.014462 
L 297.184999 118.183061 
L 298.174406 118.361519 
L 299.163813 118.549837 
L 300.153221 118.748014 
L 300.768083 118.877297 
L 301.142628 118.96018 
L 302.132035 119.189503 
L 303.121443 119.429202 
L 304.11085 119.679278 
L 304.822849 119.866705 
L 305.100258 119.943771 
L 306.089665 120.229588 
L 307.079072 120.526355 
L 308.06848 120.834074 
L 308.136905 120.856112 
L 309.057887 121.17012 
L 310.047295 121.51905 
L 310.943249 121.84552 
L 311.036702 121.881691 
L 312.026109 122.276962 
L 313.015517 122.684546 
L 313.369861 122.834927 
L 314.004924 123.122328 
L 314.994332 123.58322 
L 315.4976 123.824334 
L 315.983739 124.073796 
L 316.973146 124.595573 
L 317.375986 124.813742 
L 317.962554 125.155719 
L 318.951961 125.747698 
L 319.042328 125.803149 
L 319.941368 126.400523 
L 320.517018 126.792557 
L 320.930776 127.099791 
L 321.827647 127.781964 
L 321.920183 127.859338 
L 322.909591 128.706279 
L 322.983908 128.771371 
L 323.898998 129.661238 
L 323.99909 129.760779 
L 324.884292 130.750186 
L 324.888405 130.755434 
L 325.64307 131.739593 
L 325.877813 132.096155 
L 326.285602 132.729001 
L 326.818117 133.718408 
L 326.86722 133.832056 
L 327.237734 134.707816 
L 327.55348 135.697223 
L 327.766378 136.68663 
L 327.856628 137.498037 
L 327.876023 137.676038 
L 327.883076 138.665445 
L 327.856628 138.944713 
L 327.787976 139.654853 
L 327.589477 140.64426 
L 327.28813 141.633667 
L 326.883933 142.623075 
L 326.86722 142.655687 
L 326.366477 143.612482 
L 325.877813 144.388741 
L 325.740723 144.601889 
L 324.997058 145.591297 
L 324.888405 145.717624 
L 324.129622 146.580704 
L 323.898998 146.813653 
L 323.133105 147.570112 
L 322.909591 147.768641 
L 321.998521 148.559519 
L 321.920183 148.6213 
L 320.930776 149.383497 
L 320.710807 149.548926 
L 319.941368 150.079085 
L 319.258221 150.538334 
L 318.951961 150.728295 
L 317.962554 151.326684 
L 317.62139 151.527741 
L 316.973146 151.882344 
L 315.983739 152.409365 
L 315.775785 152.517149 
L 314.994332 152.895052 
L 314.004924 153.360265 
L 313.684672 153.506556 
L 313.015517 153.793037 
L 312.026109 154.204203 
L 311.302162 154.495963 
L 311.036702 154.596628 
L 310.047295 154.960132 
L 309.057887 155.311947 
L 308.553408 155.485371 
L 308.06848 155.642776 
L 307.079072 155.952897 
L 306.089665 156.251982 
L 305.324391 156.474778 
L 305.100258 156.536583 
L 304.11085 156.798962 
L 303.121443 157.050887 
L 302.132035 157.292359 
L 301.396136 157.464186 
L 301.142628 157.520407 
L 300.153221 157.729906 
L 299.163813 157.929475 
L 298.174406 158.119116 
L 297.184999 158.298827 
L 296.283105 158.453593 
L 296.195591 158.467893 
L 295.206184 158.620109 
L 294.216776 158.762871 
L 293.227369 158.896179 
L 292.237962 159.020032 
L 291.248554 159.134431 
L 290.259147 159.239375 
L 289.269739 159.334865 
L 288.280332 159.420901 
L 287.994809 159.443 
L 287.290925 159.494997 
L 286.301517 159.559063 
L 285.31211 159.614105 
L 284.322703 159.660124 
L 283.333295 159.69712 
L 282.343888 159.725092 
L 281.35448 159.744041 
L 280.365073 159.753967 
L 279.375666 159.754869 
L 278.386258 159.746748 
L 277.396851 159.729604 
L 276.407443 159.703436 
L 275.418036 159.668245 
L 274.428629 159.624031 
L 273.439221 159.570793 
L 272.449814 159.508532 
z
" clip-path="url(#p031bc82657)" style="fill: none; stroke: #0000ff; stroke-opacity: 0.8; stroke-width: 5"/>
   </g>
   <g id="QuadContourSet_2">
    <path d="M 223.968852 246.610816 
L 221.00063 246.218589 
L 217.745513 245.521443 
L 215.064186 244.734389 
L 211.899212 243.542628 
L 209.127741 242.257989 
L 206.091737 240.574406 
L 203.080215 238.595591 
L 200.223075 236.408513 
L 197.254853 233.77968 
L 195.152849 231.669739 
L 192.307816 228.439666 
L 190.206927 225.733295 
L 188.147763 222.765073 
L 186.305275 219.796851 
L 184.144123 215.839221 
L 182.271541 211.881592 
L 180.434927 207.333515 
L 179.270261 203.966333 
L 178.096417 200.008703 
L 177.117885 196.051074 
L 176.153754 191.104037 
L 175.461059 186.157 
L 175.034663 181.209963 
L 174.862043 176.262926 
L 174.943198 171.315889 
L 175.278129 166.368852 
L 175.874099 161.421815 
L 176.737724 156.474778 
L 177.63113 152.517149 
L 178.716385 148.559519 
L 180.005439 144.601889 
L 181.513138 140.64426 
L 183.403149 136.400661 
L 185.381964 132.566661 
L 187.635843 128.771371 
L 189.634155 125.803149 
L 191.87836 122.834927 
L 194.415413 119.866705 
L 197.322922 116.898483 
L 200.223075 114.33495 
L 203.191297 112.06792 
L 206.159519 110.12766 
L 209.127741 108.485166 
L 212.37223 107.004409 
L 215.064186 106.007374 
L 218.032408 105.146797 
L 221.00063 104.524557 
L 223.968852 104.132018 
L 226.937074 103.968435 
L 229.977172 104.036187 
L 232.873518 104.322458 
L 235.841741 104.841956 
L 238.809963 105.59745 
L 241.778185 106.595 
L 245.058217 107.993816 
L 247.714629 109.364881 
L 250.682851 111.170123 
L 253.651074 113.288286 
L 256.619296 115.750353 
L 258.881044 117.88789 
L 261.657632 120.856112 
L 264.089108 123.824334 
L 266.246982 126.792557 
L 268.171456 129.760779 
L 269.895223 132.729001 
L 271.921789 136.68663 
L 273.67541 140.64426 
L 275.184845 144.601889 
L 276.474534 148.559519 
L 277.558499 152.517149 
L 278.646787 157.464186 
L 279.457247 162.411222 
L 279.998554 167.358259 
L 280.284502 172.305296 
L 280.315092 177.252333 
L 280.090323 182.19937 
L 279.610196 187.146407 
L 278.865047 192.093444 
L 278.071836 196.051074 
L 277.093379 200.008703 
L 275.918294 203.966333 
L 274.428629 208.201283 
L 272.916707 211.881592 
L 271.044862 215.839221 
L 268.882243 219.796851 
L 267.040778 222.765073 
L 264.980858 225.733295 
L 262.55574 228.834559 
L 260.034669 231.669739 
L 257.608703 234.086609 
L 254.640481 236.675285 
L 251.672259 238.902576 
L 248.704037 240.809438 
L 245.465453 242.553221 
L 242.767592 243.760149 
L 239.79937 244.840525 
L 236.831148 245.675855 
L 233.862926 246.273007 
L 230.894704 246.639713 
L 227.926482 246.777651 
L 224.958259 246.690105 
L 223.968852 246.610816 
L 223.968852 246.610816 
" clip-path="url(#p031bc82657)" style="fill: none; stroke: #0000ff; stroke-opacity: 0.8; stroke-width: 5"/>
   </g>
   <g id="patch_3">
    <path d="M 57.6 345.6 
L 57.6 0 
" style="fill: none; stroke: #000000; stroke-width: 2; stroke-linejoin: miter; stroke-linecap: square"/>
   </g>
   <g id="patch_4">
    <path d="M 403.2 345.6 
L 403.2 0 
" style="fill: none; stroke: #000000; stroke-width: 2; stroke-linejoin: miter; stroke-linecap: square"/>
   </g>
   <g id="patch_5">
    <path d="M 57.6 345.6 
L 403.2 345.6 
" style="fill: none; stroke: #000000; stroke-width: 2; stroke-linejoin: miter; stroke-linecap: square"/>
   </g>
   <g id="patch_6">
    <path d="M 57.6 0 
L 403.2 0 
" style="fill: none; stroke: #000000; stroke-width: 2; stroke-linejoin: miter; stroke-linecap: square"/>
   </g>
  </g>
 </g>
 <defs>
  <clipPath id="p031bc82657">
   <rect x="57.6" y="0" width="345.6" height="345.6"/>
  </clipPath>
 </defs>
</svg>
