<?xml version="1.0" encoding="utf-8" standalone="no"?>
<!DOCTYPE svg PUBLIC "-//W3C//DTD SVG 1.1//EN"
  "http://www.w3.org/Graphics/SVG/1.1/DTD/svg11.dtd">
<svg xmlns:xlink="http://www.w3.org/1999/xlink" width="460.8pt" height="345.6pt" viewBox="0 0 460.8 345.6" xmlns="http://www.w3.org/2000/svg" version="1.1">
 <metadata>
  <rdf:RDF xmlns:dc="http://purl.org/dc/elements/1.1/" xmlns:cc="http://creativecommons.org/ns#" xmlns:rdf="http://www.w3.org/1999/02/22-rdf-syntax-ns#">
   <cc:Work>
    <dc:type rdf:resource="http://purl.org/dc/dcmitype/StillImage"/>
    <dc:date>2025-04-16T13:58:37.182163</dc:date>
    <dc:format>image/svg+xml</dc:format>
    <dc:creator>
     <cc:Agent>
      <dc:title>Matplotlib v3.10.1, https://matplotlib.org/</dc:title>
     </cc:Agent>
    </dc:creator>
   </cc:Work>
  </rdf:RDF>
 </metadata>
 <defs>
  <style type="text/css">*{stroke-linejoin: round; stroke-linecap: butt}</style>
 </defs>
 <g id="figure_1">
  <g id="patch_1">
   <path d="M 0 345.6 
L 460.8 345.6 
L 460.8 0 
L 0 0 
z
" style="fill: #ffffff"/>
  </g>
  <g id="axes_1">
   <g id="patch_2">
    <path d="M 57.6 345.6 
L 403.2 345.6 
L 403.2 0 
L 57.6 0 
z
" style="fill: #ffffff"/>
   </g>
   <g id="matplotlib.axis_1"/>
   <g id="matplotlib.axis_2"/>
   <g id="line2d_1">
    <path d="M 277.179953 -1 
L 288.444181 346.6 
" clip-path="url(#pb46945b0f2)" style="fill: none; stroke: #ffa500; stroke-width: 5; stroke-linecap: square"/>
   </g>
   <g id="line2d_2">
    <path d="M 57.6 77.578796 
L 403.2 337.709411 
" clip-path="url(#pb46945b0f2)" style="fill: none; stroke: #ffa500; stroke-width: 5; stroke-linecap: square"/>
   </g>
   <g id="line2d_3">
    <path d="M 57.6 300.844821 
L 403.2 101.579868 
" clip-path="url(#pb46945b0f2)" style="fill: none; stroke: #ffa500; stroke-width: 5; stroke-linecap: square"/>
   </g>
   <g id="line2d_4">
    <path d="M 57.6 300.830768 
L 403.2 101.58931 
" clip-path="url(#pb46945b0f2)" style="fill: none; stroke: #ffa500; stroke-width: 5; stroke-linecap: square"/>
   </g>
   <g id="QuadContourSet_1">
    <path d="M 223.820441 189.800202 
L 219.66493 189.329226 
L 215.509419 188.621946 
L 211.353908 187.66267 
L 207.198397 186.424281 
L 203.735471 185.155911 
L 200.272545 183.643376 
L 197.358876 182.1499 
L 194.731864 180.597408 
L 191.9322 178.686974 
L 189.191182 176.48623 
L 187.108524 174.531463 
L 185.035671 172.243036 
L 183.59427 170.375952 
L 182.233833 168.298196 
L 180.88016 165.738559 
L 180.187575 164.110704 
L 179.49499 162.053612 
L 178.995829 159.987174 
L 178.684703 157.909419 
L 178.563154 155.831663 
L 178.628603 153.753908 
L 178.882114 151.676152 
L 179.327497 149.598397 
L 179.968809 147.520641 
L 180.88016 145.30031 
L 181.873195 143.36513 
L 183.161149 141.287375 
L 184.697685 139.209619 
L 186.507459 137.131864 
L 188.628071 135.054108 
L 191.268938 132.853451 
L 194.039279 130.886998 
L 196.809619 129.198869 
L 199.57996 127.733142 
L 203.042886 126.165275 
L 206.505812 124.851586 
L 209.968737 123.758956 
L 214.124248 122.708553 
L 218.27976 121.918078 
L 222.435271 121.371635 
L 226.590782 121.054595 
L 230.746293 120.962343 
L 234.901804 121.091496 
L 239.057315 121.446941 
L 243.212826 122.033389 
L 247.368337 122.865568 
L 251.523848 123.959487 
L 254.986774 125.096161 
L 258.449699 126.458084 
L 261.912625 128.079003 
L 264.682966 129.597476 
L 267.802433 131.591182 
L 270.561682 133.668938 
L 272.993988 135.821909 
L 275.071743 137.987469 
L 276.643715 139.902204 
L 278.094611 141.97996 
L 279.305253 144.057715 
L 280.290983 146.135471 
L 281.067073 148.213226 
L 281.642022 150.290982 
L 282.023876 152.368737 
L 282.213991 154.446493 
L 282.217107 156.524248 
L 281.997595 158.841941 
L 281.657816 160.67976 
L 281.089487 162.757515 
L 280.320201 164.835271 
L 279.227255 167.125654 
L 277.842084 169.446656 
L 276.456914 171.378813 
L 274.990267 173.146293 
L 272.988975 175.224048 
L 270.646315 177.301804 
L 267.901992 179.379559 
L 265.375551 181.026797 
L 262.142924 182.842485 
L 259.142285 184.281007 
L 255.679359 185.69159 
L 251.796881 186.997996 
L 248.060922 188.010745 
L 243.905411 188.885146 
L 239.7499 189.511588 
L 235.594389 189.904965 
L 231.438878 190.071351 
L 227.283367 190.015889 
L 223.820441 189.800202 
L 223.820441 189.800202 
" clip-path="url(#pb46945b0f2)" style="fill: none; stroke: #0000ff; stroke-opacity: 0.8; stroke-width: 5"/>
   </g>
   <g id="QuadContourSet_2">
    <path d="M 267.453307 234.222634 
L 266.068136 233.864006 
L 264.682966 233.263368 
L 263.297796 232.400609 
L 261.912625 231.251268 
L 260.527455 229.766075 
L 259.13107 227.860521 
L 257.757114 225.45317 
L 256.669748 223.012425 
L 255.679359 220.162228 
L 254.976082 217.471743 
L 254.346158 214.008818 
L 254.041893 211.238477 
L 253.887986 207.775551 
L 253.982316 204.312625 
L 254.326375 200.849699 
L 254.945887 197.386774 
L 255.679359 194.557323 
L 256.614899 191.846092 
L 257.757114 189.266166 
L 259.04436 186.997996 
L 260.009338 185.612826 
L 261.22004 184.165373 
L 262.619897 182.842485 
L 263.990381 181.85434 
L 265.375551 181.125568 
L 266.760721 180.646638 
L 268.145892 180.407161 
L 269.531062 180.397862 
L 270.916232 180.618739 
L 272.301403 181.077842 
L 273.686573 181.785712 
L 275.165313 182.842485 
L 276.621943 184.227655 
L 277.842084 185.690211 
L 279.227255 187.783116 
L 280.274 189.768337 
L 281.30501 192.179124 
L 282.124909 194.616433 
L 282.841023 197.386774 
L 283.461579 200.849699 
L 283.806731 204.312625 
L 283.901773 207.775551 
L 283.746705 211.238477 
L 283.339506 214.701403 
L 282.650165 218.164329 
L 281.866569 220.934669 
L 280.835936 223.70501 
L 279.86337 225.782766 
L 278.534669 228.046343 
L 277.117351 229.938277 
L 275.764329 231.356392 
L 274.036154 232.708617 
L 272.825958 233.401202 
L 271.608818 233.901986 
L 270.223647 234.241139 
L 268.838477 234.346386 
L 267.453307 234.222634 
L 267.453307 234.222634 
" clip-path="url(#pb46945b0f2)" style="fill: none; stroke: #0000ff; stroke-opacity: 0.8; stroke-width: 5"/>
   </g>
   <g id="patch_3">
    <path d="M 57.6 345.6 
L 57.6 0 
" style="fill: none; stroke: #000000; stroke-width: 2; stroke-linejoin: miter; stroke-linecap: square"/>
   </g>
   <g id="patch_4">
    <path d="M 403.2 345.6 
L 403.2 0 
" style="fill: none; stroke: #000000; stroke-width: 2; stroke-linejoin: miter; stroke-linecap: square"/>
   </g>
   <g id="patch_5">
    <path d="M 57.6 345.6 
L 403.2 345.6 
" style="fill: none; stroke: #000000; stroke-width: 2; stroke-linejoin: miter; stroke-linecap: square"/>
   </g>
   <g id="patch_6">
    <path d="M 57.6 0 
L 403.2 0 
" style="fill: none; stroke: #000000; stroke-width: 2; stroke-linejoin: miter; stroke-linecap: square"/>
   </g>
  </g>
 </g>
 <defs>
  <clipPath id="pb46945b0f2">
   <rect x="57.6" y="0" width="345.6" height="345.6"/>
  </clipPath>
 </defs>
</svg>
